<svg width="95" height="120" viewBox="0 0 95 120" fill="none" xmlns="http://www.w3.org/2000/svg">
<path d="M47.5 60C50.7656 60 53.5622 58.824 55.8897 56.472C58.2132 54.124 59.375 51.3 59.375 48C59.375 44.7 58.2132 41.874 55.8897 39.522C53.5622 37.174 50.7656 36 47.5 36C44.2344 36 41.4398 37.174 39.1163 39.522C36.7888 41.874 35.625 44.7 35.625 48C35.625 51.3 36.7888 54.124 39.1163 56.472C41.4398 58.824 44.2344 60 47.5 60ZM47.5 104.1C59.5729 92.9 68.5286 82.724 74.3672 73.572C80.2057 64.424 83.125 56.3 83.125 49.2C83.125 38.3 79.6852 29.374 72.8056 22.422C65.93 15.474 57.4948 12 47.5 12C37.5052 12 29.068 15.474 22.1884 22.422C15.3128 29.374 11.875 38.3 11.875 49.2C11.875 56.3 14.7943 64.424 20.6328 73.572C26.4714 82.724 35.4271 92.9 47.5 104.1ZM47.5 120C31.5677 106.3 19.669 93.574 11.8037 81.822C3.93458 70.074 0 59.2 0 49.2C0 34.2 4.77573 22.25 14.3272 13.35C23.8747 4.45 34.9323 0 47.5 0C60.0677 0 71.1253 4.45 80.6728 13.35C90.2243 22.25 95 34.2 95 49.2C95 59.2 91.0674 70.074 83.2022 81.822C75.333 93.574 63.4323 106.3 47.5 120Z" fill="#464646"/>
</svg>
